HIERARCHY
ROOT reference
{
  OFFSET 0 0 0
  CHANNELS 6 Xposition Yposition Zposition Zrotation Xrotation Yrotation
  JOINT Hips
  {
    OFFSET 368.823 89.7904 194.012
    CHANNELS 3 Zrotation Xrotation Yrotation
    JOINT RightUpLeg
    {
      OFFSET -9.24587 -1.53924 -0.0496539
      CHANNELS 3 Zrotation Xrotation Yrotation
      JOINT RightLeg
      {
        OFFSET 0.0288962 -41.8853 0.065208
        CHANNELS 3 Zrotation Xrotation Yrotation
        JOINT RightFoot
        {
          OFFSET -0.153961 -42.496 -0.469978
          CHANNELS 3 Zrotation Xrotation Yrotation
          End Site
          {
            OFFSET 0 -7.69 17.5
          }
        }
      }
    }
    JOINT LeftUpLeg
    {
      OFFSET 9.30368 -1.65799 0.0114032
      CHANNELS 3 Zrotation Xrotation Yrotation
      JOINT LeftLeg
      {
        OFFSET 0.0812002 -41.8405 -0.136291
        CHANNELS 3 Zrotation Xrotation Yrotation
        JOINT LeftFoot
        {
          OFFSET 0.408244 -41.1613 0.400562
          CHANNELS 3 Zrotation Xrotation Yrotation
          End Site
          {
            OFFSET 0 -7.69 17.5
          }
        }
      }
    }
    JOINT Spine
    {
      OFFSET 0.0091145 14.2923 0.0603898
      CHANNELS 3 Zrotation Xrotation Yrotation
      JOINT Spine1
      {
        OFFSET 0.0313032 9.72692 0.0269052
        CHANNELS 3 Zrotation Xrotation Yrotation
        JOINT Spine2
        {
          OFFSET 0.0416827 10.1254 -0.000588186
          CHANNELS 3 Zrotation Xrotation Yrotation
          JOINT Spine3
          {
            OFFSET 0.0353017 9.71596 0.00525809
            CHANNELS 3 Zrotation Xrotation Yrotation
            JOINT Neck
            {
              OFFSET 0.0870676 10.3793 0.0454457
              CHANNELS 3 Zrotation Xrotation Yrotation
              JOINT Head
              {
                OFFSET 0.0878806 9.48152 0.0233162
                CHANNELS 3 Zrotation Xrotation Yrotation
                End Site
                {
                  OFFSET 0 15.95 0
                }
              }
            }
            JOINT RightShoulder
            {
              OFFSET -3.16008 6.92912 0.0289115
              CHANNELS 3 Zrotation Xrotation Yrotation
              JOINT RightArm
              {
                OFFSET -12.7589 0.0216905 0.0632467
                CHANNELS 3 Zrotation Xrotation Yrotation
                JOINT RightForeArm
                {
                  OFFSET -26.506 -0.0577999 0.0567862
                  CHANNELS 3 Zrotation Xrotation Yrotation
                  JOINT RightHand
                  {
                    OFFSET -25.9836 -0.0526551 -0.00138994
                    CHANNELS 3 Zrotation Xrotation Yrotation
                    JOINT RightHandThumb1
                    {
                      OFFSET -2.48905 0.190105 3.12053
                      CHANNELS 3 Zrotation Xrotation Yrotation
                      JOINT RightHandThumb2
                      {
                        OFFSET -3.68274 0 0
                        CHANNELS 3 Zrotation Xrotation Yrotation
                        JOINT RightHandThumb3
                        {
                          OFFSET -2.55832 0 0
                          CHANNELS 3 Zrotation Xrotation Yrotation
                          End Site
                          {
                            OFFSET -2.194 0 0
                          }
                        }
                      }
                    }
                    JOINT RightInHandIndex
                    {
                      OFFSET -3.22368 0.508421 1.97842
                      CHANNELS 3 Zrotation Xrotation Yrotation
                      JOINT RightHandIndex1
                      {
                        OFFSET -5.21684 -0.091368 0.999158
                        CHANNELS 3 Zrotation Xrotation Yrotation
                        JOINT RightHandIndex2
                        {
                          OFFSET -3.61937 0 0
                          CHANNELS 3 Zrotation Xrotation Yrotation
                          JOINT RightHandIndex3
                          {
                            OFFSET -2.0521 0 0
                            CHANNELS 3 Zrotation Xrotation Yrotation
                            End Site
                            {
                              OFFSET -1.805 0 0
                            }
                          }
                        }
                      }
                    }
                    JOINT RightInHandMiddle
                    {
                      OFFSET -3.38211 0.517263 0.756737
                      CHANNELS 3 Zrotation Xrotation Yrotation
                      JOINT RightHandMiddle1
                      {
                        OFFSET -5.17411 -0.084 0.313895
                        CHANNELS 3 Zrotation Xrotation Yrotation
                        JOINT RightHandMiddle2
                        {
                          OFFSET -3.94947 0 0
                          CHANNELS 3 Zrotation Xrotation Yrotation
                          JOINT RightHandMiddle3
                          {
                            OFFSET -2.47579 0 0
                            CHANNELS 3 Zrotation Xrotation Yrotation
                            End Site
                            {
                              OFFSET -1.975 0 0
                            }
                          }
                        }
                      }
                    }
                    JOINT RightInHandRing
                    {
                      OFFSET -3.36516 0.537895 -0.128947
                      CHANNELS 3 Zrotation Xrotation Yrotation
                      JOINT RightHandRing1
                      {
                        OFFSET -4.63474 -0.022105 -0.478947
                        CHANNELS 3 Zrotation Xrotation Yrotation
                        JOINT RightHandRing2
                        {
                          OFFSET -3.44238 0 0
                          CHANNELS 3 Zrotation Xrotation Yrotation
                          JOINT RightHandRing3
                          {
                            OFFSET -2.3881 0 0
                            CHANNELS 3 Zrotation Xrotation Yrotation
                            End Site
                            {
                              OFFSET -1.857 0 0
                            }
                          }
                        }
                      }
                    }
                    JOINT RightInHandPinky
                    {
                      OFFSET -3.16105 0.469368 -1.20179
                      CHANNELS 3 Zrotation Xrotation Yrotation
                      JOINT RightHandPinky1
                      {
                        OFFSET -4.14105 -0.022105 -1.09053
                        CHANNELS 3 Zrotation Xrotation Yrotation
                        JOINT RightHandPinky2
                        {
                          OFFSET -2.75653 0 0
                          CHANNELS 3 Zrotation Xrotation Yrotation
                          JOINT RightHandPinky3
                          {
                            OFFSET -1.74189 0 0
                            CHANNELS 3 Zrotation Xrotation Yrotation
                            End Site
                            {
                              OFFSET -1.645 0 0
                            }
                          }
                        }
                      }
                    }
                  }
                }
              }
            }
            JOINT LeftShoulder
            {
              OFFSET 3.24363 6.91883 -0.0263005
              CHANNELS 3 Zrotation Xrotation Yrotation
              JOINT LeftArm
              {
                OFFSET 12.8387 -0.0254922 -0.065819
                CHANNELS 3 Zrotation Xrotation Yrotation
                JOINT LeftForeArm
                {
                  OFFSET 26.503 -0.0679028 -0.0690065
                  CHANNELS 3 Zrotation Xrotation Yrotation
                  JOINT LeftHand
                  {
                    OFFSET 25.9897 -0.0384179 -0.0536179
                    CHANNELS 3 Zrotation Xrotation Yrotation
                    JOINT LeftHandThumb1
                    {
                      OFFSET 2.48905 0.190105 3.12053
                      CHANNELS 3 Zrotation Xrotation Yrotation
                      JOINT LeftHandThumb2
                      {
                        OFFSET 3.68274 0 0
                        CHANNELS 3 Zrotation Xrotation Yrotation
                        JOINT LeftHandThumb3
                        {
                          OFFSET 2.55832 0 0
                          CHANNELS 3 Zrotation Xrotation Yrotation
                          End Site
                          {
                            OFFSET 2.194 0 0
                          }
                        }
                      }
                    }
                    JOINT LeftInHandIndex
                    {
                      OFFSET 3.22368 0.508421 1.97842
                      CHANNELS 3 Zrotation Xrotation Yrotation
                      JOINT LeftHandIndex1
                      {
                        OFFSET 5.21684 -0.091368 0.999158
                        CHANNELS 3 Zrotation Xrotation Yrotation
                        JOINT LeftHandIndex2
                        {
                          OFFSET 3.61937 0 0
                          CHANNELS 3 Zrotation Xrotation Yrotation
                          JOINT LeftHandIndex3
                          {
                            OFFSET 2.0521 0 0
                            CHANNELS 3 Zrotation Xrotation Yrotation
                            End Site
                            {
                              OFFSET 1.805 0 0
                            }
                          }
                        }
                      }
                    }
                    JOINT LeftInHandMiddle
                    {
                      OFFSET 3.38211 0.517263 0.756737
                      CHANNELS 3 Zrotation Xrotation Yrotation
                      JOINT LeftHandMiddle1
                      {
                        OFFSET 5.17411 -0.084 0.313895
                        CHANNELS 3 Zrotation Xrotation Yrotation
                        JOINT LeftHandMiddle2
                        {
                          OFFSET 3.94947 0 0
                          CHANNELS 3 Zrotation Xrotation Yrotation
                          JOINT LeftHandMiddle3
                          {
                            OFFSET 2.47579 0 0
                            CHANNELS 3 Zrotation Xrotation Yrotation
                            End Site
                            {
                              OFFSET 1.975 0 0
                            }
                          }
                        }
                      }
                    }
                    JOINT LeftInHandRing
                    {
                      OFFSET 3.36516 0.537895 -0.128947
                      CHANNELS 3 Zrotation Xrotation Yrotation
                      JOINT LeftHandRing1
                      {
                        OFFSET 4.63474 -0.022105 -0.478947
                        CHANNELS 3 Zrotation Xrotation Yrotation
                        JOINT LeftHandRing2
                        {
                          OFFSET 3.44238 0 0
                          CHANNELS 3 Zrotation Xrotation Yrotation
                          JOINT LeftHandRing3
                          {
                            OFFSET 2.3881 0 0
                            CHANNELS 3 Zrotation Xrotation Yrotation
                            End Site
                            {
                              OFFSET 1.857 0 0
                            }
                          }
                        }
                      }
                    }
                    JOINT LeftInHandPinky
                    {
                      OFFSET 3.16105 0.469368 -1.20179
                      CHANNELS 3 Zrotation Xrotation Yrotation
                      JOINT LeftHandPinky1
                      {
                        OFFSET 4.14105 -0.022105 -1.09053
                        CHANNELS 3 Zrotation Xrotation Yrotation
                        JOINT LeftHandPinky2
                        {
                          OFFSET 2.75653 0 0
                          CHANNELS 3 Zrotation Xrotation Yrotation
                          JOINT LeftHandPinky3
                          {
                            OFFSET 1.74189 0 0
                            CHANNELS 3 Zrotation Xrotation Yrotation
                            End Site
                            {
                              OFFSET 1.645 0 0
                            }
                          }
                        }
                      }
                    }
                  }
                }
              }
            }
          }
        }
      }
    }
  }
}
MOTION
Frames:	4
Frame Time:	0.00833333
0 0 0 0 0 -0 24.2065 0.108474 -130.653 35.2456 -36.8997 34.5108 -9.52303 18.6796 0.667979 6.42485 5.86178 49.8872 32.172 -19.3097 22.6255 -25.8511 42.2949 30.6446 0.331225 -26.1442 5.08318 -6.18921 -3.80435 -12.3729 -1.47284 -1.21135 -2.99244 -2.46025 -2.07332 -4.85332 -0.572057 -0.292101 2.69186 -0.618049 -4.95044 37.474 -9.3793 7.51394 27.6764 2.9781 0.239492 3.15361 26.2127 -64.7374 -4.5944 13.8807 -11.2599 121.922 3.21085 -33.0297 11.3883 28.184 10.7294 19.1592 8.07405e-15 0 -10 9.03857e-15 3.18055e-15 -10 1.07344e-14 -1.59028e-15 3.18055e-15 19.9818 0.871897 2.3964 24 0 2.38542e-14 20 9.54166e-15 4.85035e-14 1.07344e-14 -1.59028e-15 3.18055e-15 20 -7.95139e-15 1.43125e-14 24 9.54166e-15 2.8625e-14 20 -1.59028e-15 2.68359e-14 1.07344e-14 -1.59028e-15 3.18055e-15 19.9748 -1.02565 -2.81938 24 6.36111e-15 1.19271e-14 20 1.59028e-14 4.60311e-14 1.07344e-14 -1.59028e-15 3.18055e-15 19.7815 -3.00948 -8.30515 24 -1.59028e-15 1.30577e-14 20 1.51076e-14 3.57812e-14 1.64344 -19.8348 -49.7413 -5.94703 24.2764 -118.547 35.9273 -16.1457 -35.7691 -30.6423 -9.93396 -16.4515 -28.184 10.7294 -19.1592 -7.69218e-15 -1.59028e-14 10 9.39754e-15 -6.36111e-15 10 -1.98785e-16 -6.36111e-15 -6.36111e-15 -19.9818 0.871897 -2.3964 -24 -7.95139e-15 -4.77083e-15 -20 1.59028e-15 2.18663e-15 -1.98785e-16 -6.36111e-15 -6.36111e-15 -20 -7.95139e-15 -4.77083e-15 -24 -3.18055e-15 -3.97569e-15 -20 1.59028e-15 -1.20265e-14 -1.98785e-16 -6.36111e-15 -6.36111e-15 -19.9748 -1.02565 2.81938 -24 7.95139e-16 -1.11319e-14 -20 -3.18055e-15 5.86415e-15 -1.98785e-16 -6.36111e-15 -6.36111e-15 -19.7815 -3.00948 8.30515 -24 -1.19271e-15 -0 -20 5.96354e-15 -9.54166e-15 
0 0 0 0 0 -0 24.1951 0.0950703 -130.672 35.2009 -36.9952 34.7009 -9.44756 18.7559 0.616205 6.57535 5.83221 49.7409 32.192 -19.4838 22.9394 -25.7361 42.4338 30.4005 0.475598 -25.9026 5.22205 -6.23534 -3.7676 -12.1783 -1.48626 -1.20116 -2.94335 -2.48212 -2.0569 -4.77451 -0.570669 -0.291611 2.6892 -0.641782 -4.90635 37.2028 -9.38234 7.44451 27.8016 3.07825 0.206292 3.16761 26.9246 -64.4045 -4.11766 13.9648 -11.3144 121.808 3.48917 -33.0074 11.5718 28.184 10.7294 19.1592 1.00707e-14 1.59028e-14 -10 1.92882e-14 6.36111e-15 -10 1.96797e-14 7.95139e-16 4.77083e-15 19.9818 0.871897 2.3964 24 6.36111e-15 2.70347e-14 20 3.18055e-15 5.20816e-14 1.96797e-14 7.95139e-16 4.77083e-15 20 -3.18055e-15 1.59028e-14 24 9.54166e-15 3.02153e-14 20 -4.77083e-15 2.8625e-14 1.96797e-14 7.95139e-16 4.77083e-15 19.9748 -1.02565 -2.81938 24 1.11319e-14 1.59028e-14 20 1.43125e-14 4.57205e-14 1.96797e-14 7.95139e-16 4.77083e-15 19.7815 -3.00948 -8.30515 24 -7.95139e-16 1.35174e-14 20 1.59028e-14 3.49861e-14 1.76838 -19.7901 -49.6996 -5.95327 24.3441 -118.493 35.8198 -16.1367 -35.497 -30.6902 -9.87625 -16.3576 -28.184 10.7294 -19.1592 -6.32395e-15 -1.90833e-14 10 8.29881e-15 -1.27222e-14 10 -1.0635e-14 -5.96354e-15 -7.95139e-15 -19.9818 0.871897 -2.3964 -24 -7.95139e-15 -9.54166e-15 -20 0 4.96962e-15 -1.0635e-14 -5.96354e-15 -7.95139e-15 -20 -1.03368e-14 -6.36111e-15 -24 0 -1.59028e-15 -20 -1.59028e-15 -1.20265e-14 -1.0635e-14 -5.96354e-15 -7.95139e-15 -19.9748 -1.02565 2.81938 -24 3.18055e-15 -1.11319e-14 -20 -2.38542e-15 6.36111e-15 -1.0635e-14 -5.96354e-15 -7.95139e-15 -19.7815 -3.00948 8.30515 -24 -7.95139e-16 -3.97569e-16 -20 5.56597e-15 -9.93923e-15 
0 0 0 0 0 -0 24.3092 0.237211 -130.469 35.1996 -37.2016 34.6787 -9.39643 18.8022 0.501358 6.7185 5.83119 49.6435 32.3197 -19.783 23.0603 -25.6189 42.6049 30.1886 0.618894 -25.7403 5.3141 -6.1808 -3.69104 -12.0889 -1.47468 -1.17828 -2.92389 -2.4627 -2.0187 -4.74496 -0.569395 -0.291119 2.68648 -0.660774 -4.88571 37.0086 -9.37755 7.3509 27.8848 3.16418 0.185539 3.14842 27.7042 -64.1123 -3.61521 14.074 -11.3181 121.679 3.68603 -32.31 12.0325 28.184 10.7294 19.1592 4.28361e-15 -3.18055e-15 -10 2.50972e-14 9.54166e-15 -10 8.74653e-15 0 4.77083e-15 19.9818 0.871897 2.3964 24 0 2.38542e-14 20 6.36111e-15 4.73108e-14 8.74653e-15 0 4.77083e-15 20 -3.18055e-15 1.27222e-14 24 1.27222e-14 2.8625e-14 20 -6.36111e-15 2.62396e-14 8.74653e-15 0 4.77083e-15 19.9748 -1.02565 -2.81938 24 9.54166e-15 1.03368e-14 20 1.27222e-14 4.40308e-14 8.74653e-15 0 4.77083e-15 19.7815 -3.00948 -8.30515 24 -2.38542e-15 1.20762e-14 20 1.43125e-14 3.33958e-14 1.91312 -19.7599 -49.6415 -5.99291 24.3802 -118.51 35.6848 -16.0825 -35.1491 -30.7202 -9.81695 -16.2442 -28.184 10.7294 -19.1592 -1.42191e-14 -6.36111e-15 10 3.99229e-15 -3.18055e-15 10 -5.56597e-15 -6.75868e-15 -4.77083e-15 -19.9818 0.871897 -2.3964 -24 -6.36111e-15 -1.11319e-14 -20 3.18055e-15 -0 -5.56597e-15 -6.75868e-15 -4.77083e-15 -20 -8.74653e-15 -7.95139e-15 -24 -1.59028e-15 -5.56597e-15 -20 0 -1.25234e-14 -5.56597e-15 -6.75868e-15 -4.77083e-15 -19.9748 -1.02565 2.81938 -24 1.59028e-15 -1.35174e-14 -20 -3.18055e-15 5.46658e-15 -5.56597e-15 -6.75868e-15 -4.77083e-15 -19.7815 -3.00948 8.30515 -24 -1.39149e-15 -7.95139e-16 -20 5.86415e-15 -9.14409e-15 
0 0 0 0 0 -0 24.4476 0.365247 -130.237 35.203 -37.4464 34.6848 -9.34134 18.8519 0.393757 6.83457 5.83472 49.5098 32.4497 -20.1333 23.1901 -25.4731 42.7844 29.948 0.740406 -25.5817 5.39442 -6.13083 -3.61132 -11.9867 -1.46435 -1.15463 -2.9011 -2.44533 -1.97927 -4.71002 -0.568137 -0.290626 2.68375 -0.67973 -4.86822 36.8115 -9.36247 7.22925 27.9665 3.25051 0.166828 3.10949 28.4041 -63.8874 -3.21027 14.2331 -11.2108 121.525 3.80746 -31.3991 12.5752 28.184 10.7294 19.1592 1.15503e-14 -3.18055e-15 -10 2.50972e-14 9.54166e-15 -10 8.94531e-15 7.95139e-16 4.77083e-15 19.9818 0.871897 2.3964 24 3.18055e-15 2.8625e-14 20 0 4.8901e-14 8.94531e-15 7.95139e-16 4.77083e-15 20 -4.77083e-15 1.27222e-14 24 1.11319e-14 2.62396e-14 20 -3.18055e-15 2.54444e-14 8.94531e-15 7.95139e-16 4.77083e-15 19.9748 -1.02565 -2.81938 24 1.11319e-14 1.51076e-14 20 1.59028e-14 4.50247e-14 8.94531e-15 7.95139e-16 4.77083e-15 19.7815 -3.00948 -8.30515 24 -7.95139e-16 1.23743e-14 20 1.35174e-14 3.49861e-14 2.05906 -19.7525 -49.5823 -6.04 24.4259 -118.553 35.5663 -15.9933 -34.7562 -30.7521 -9.77781 -16.1354 -28.184 10.7294 -19.1592 -4.49638e-15 -1.11319e-14 10 1.3188e-14 -9.54166e-15 10 -9.79014e-15 -5.96354e-15 -5.56597e-15 -19.9818 0.871897 -2.3964 -24 -3.18055e-15 -6.36111e-15 -20 1.59028e-15 2.98177e-15 -9.79014e-15 -5.96354e-15 -5.56597e-15 -20 -1.19271e-14 -5.56597e-15 -24 -3.97569e-15 -2.78299e-15 -20 1.59028e-15 -1.30204e-14 -9.79014e-15 -5.96354e-15 -5.56597e-15 -19.9748 -1.02565 2.81938 -24 3.97569e-15 -1.31198e-14 -20 -1.59028e-15 7.15625e-15 -9.79014e-15 -5.96354e-15 -5.56597e-15 -19.7815 -3.00948 8.30515 -24 -7.95139e-16 -3.97569e-16 -20 5.76476e-15 -9.54166e-15 
